<svg viewBox="367.2 357.55 1240 1240" xmlns="http://www.w3.org/2000/svg" data-name="Layer 1" id="Layer_1" style="max-height: 500px" width="1240" height="1240"><defs><style>.cls-1{fill:#0d447a;}.cls-2{fill:#fff;}.cls-3,.cls-4{fill:#5dba47;stroke:#fff;stroke-miterlimit:10;}.cls-3{stroke-width:2px;}.cls-4{stroke-width:4px;}</style></defs><path d="M988.37,377.79c-331.37,0-600,268.63-600,600s268.63,600,600,600,600-268.63,600-600S1319.74,377.79,988.37,377.79Zm0,995.94c-218.66,0-395.94-177.28-395.94-395.94S769.71,581.85,988.37,581.85s395.94,177.27,395.94,395.94S1207,1373.73,988.37,1373.73Z" class="cls-1"/><path d="M476.89,789.88,580.53,818.8,574,842.36l-70-19.49,67.36,28.9-4.66,16.71-71.13-9.19,68.36,19.12L557.32,902,453.68,873l9.73-34.88q9.78,1.07,22.93,3l27.43,3.54L467.1,824.94Z" class="cls-2"/><path d="M487.35,766.69l19.91-42.2,19.47,9.18-8,16.9,18.45,8.7,7.46-15.81,18.51,8.73L555.74,768l21.4,10.1,8.76-18.58,19.48,9.19-20.7,43.88Z" class="cls-2"/><path d="M517.52,705.08l11.55-17.46q11.19-16.9,16.68-21.84t11.1-5.69a19.45,19.45,0,0,1,10.47,1.35q4.86,2.1,17.61,10.53l31.43,20.8q12.09,8,15.41,11.82a14.63,14.63,0,0,1,3.75,8.18,19.63,19.63,0,0,1-1.41,9.11q-1.83,4.77-7.37,13.14l-19.47,29.43Zm30.8-13.18,59,39.06q3.35-5,2.09-7.55T599.2,715L564.33,691.9a55.57,55.57,0,0,0-8.07-4.78,4.43,4.43,0,0,0-3.69.1Q550.84,688.08,548.32,691.9Z" class="cls-2"/><path d="M651.56,592.77,633.06,611l-5.6-5.68q-3.91-4-5.7-4.36a3.65,3.65,0,0,0-3.44,1.24,4.23,4.23,0,0,0-1.28,4.15q.53,2.39,3.47,5.37c2.52,2.55,4.77,4.14,6.73,4.75s5.36.35,10.25-.87q21.09-5.22,29.54-3.56T686.59,625q8.07,8.19,10,14t-1,13.81A41.1,41.1,0,0,1,685.39,668q-8,7.88-16.64,10.43t-15-.41q-6.37-3-14.87-11.57l-4.94-5,18.5-18.25,9.19,9.33q4.26,4.31,6.25,4.76c1.33.31,2.65-.19,4-1.5a4.54,4.54,0,0,0,1.41-4.47,12.53,12.53,0,0,0-3.6-5.6q-6.67-6.76-10.57-7t-16.18,2.24q-12.28,2.4-16.89,2.56A23.63,23.63,0,0,1,616,641.24q-5.46-2.37-11.48-8.47Q595.78,624,594,617.68a21.26,21.26,0,0,1,1-13.53,40.6,40.6,0,0,1,9.86-14.24q7.75-7.65,15.7-10.54t13.47-.82q5.54,2.06,14.54,11.2Z" class="cls-2"/><path d="M727.64,553.93l-22.78,16.25L694,555q-4.74-6.65-6.64-7.77t-4.4.65c-1.87,1.34-2.59,2.86-2.14,4.55s2.25,4.76,5.42,9.2l29,40.69q4.54,6.38,6.7,7.79t4.8-.49c1.69-1.21,2.34-2.65,1.93-4.32s-2.32-4.92-5.75-9.73l-7.86-11,22.78-16.25,2.44,3.41q9.69,13.61,11.84,20.66t-1.38,16q-3.53,9-13.15,15.84-10,7.15-19.09,8.15a21.59,21.59,0,0,1-15.77-3.9q-6.68-4.9-15.87-17.78l-18.26-25.59a139.58,139.58,0,0,1-9.48-14.67,24.4,24.4,0,0,1-2.64-11.87,26.46,26.46,0,0,1,4-13.27,39.72,39.72,0,0,1,11.32-11.88q10.06-7.17,19.39-8T706.75,529q6.21,4.35,15,16.61Z" class="cls-2"/><path d="M778.81,475.37l47.25,96.68-25.14,12.29-19.84-40.61-7.53,3.68L793.4,588,768.26,600.3,721,503.62l25.14-12.28,16.9,34.57,7.52-3.67-16.9-34.58Z" class="cls-2"/><path d="M881.39,508.32q4.67,15.54,5.87,22.22a25.77,25.77,0,0,1-9,24.52,39.72,39.72,0,0,1-14.42,7.45,40.75,40.75,0,0,1-15.68,1.75A25.88,25.88,0,0,1,826.83,549q-2.67-6.13-7.45-22.05l-5.28-17.63q-4.67-15.54-5.87-22.22a25.71,25.71,0,0,1,9-24.52,39.47,39.47,0,0,1,14.42-7.44,40.57,40.57,0,0,1,15.68-1.76,25.88,25.88,0,0,1,21.34,15.29q2.67,6.14,7.45,22.05Zm-37-25.83q-2.14-7.19-3.55-9a3.31,3.31,0,0,0-3.88-1,3.82,3.82,0,0,0-2.73,2.59q-.63,1.95,1.76,9.91l14.43,48.13q2.7,9,4.06,10.86t4,1.08a3.44,3.44,0,0,0,2.78-3.47q0-2.64-2.69-11.75Z" class="cls-2"/><path d="M958.3,497.18q2.12,16.08,2.23,22.87a25.7,25.7,0,0,1-12.8,22.76,39.61,39.61,0,0,1-15.43,5,40.51,40.51,0,0,1-15.75-.78,25.88,25.88,0,0,1-18.62-18.51q-1.65-6.48-3.81-23l-2.4-18.26q-2.1-16.06-2.23-22.86a25.7,25.7,0,0,1,12.8-22.76,39.61,39.61,0,0,1,15.43-5,40.56,40.56,0,0,1,15.76.78A25.86,25.86,0,0,1,952.09,456q1.67,6.5,3.82,23ZM926,465.76q-1-7.44-2.07-9.41a3.31,3.31,0,0,0-3.67-1.64,3.86,3.86,0,0,0-3.11,2.12q-.93,1.83.15,10.07l6.53,49.82q1.23,9.3,2.27,11.37t3.81,1.71a3.45,3.45,0,0,0,3.3-3q.45-2.61-.78-12Z" class="cls-2"/><path d="M999.93,434.33l-.5,86.07,17,.1-.12,21.53-45-.26L972,434.16Z" class="cls-2"/><path d="M1115.05,481.68l-25.52-4.91,1.51-7.83c.7-3.66.83-6.05.37-7.18a3.66,3.66,0,0,0-3-2.12,4.22,4.22,0,0,0-4.14,1.3c-1.11,1.18-1.93,3.15-2.46,5.89-.67,3.53-.71,6.28-.1,8.25s2.74,4.61,6.52,7.95q16.24,14.43,19.67,22.32t.43,23.44q-2.17,11.3-5.85,16.13t-11.94,7a41.19,41.19,0,0,1-18.32.23q-11-2.13-18-7.81t-8.17-12.6q-1.17-6.93,1.12-18.81l1.33-6.91,25.52,4.91-2.48,12.86q-1.14,5.94-.39,7.84c.5,1.27,1.66,2.08,3.49,2.43a4.54,4.54,0,0,0,4.49-1.36,12.48,12.48,0,0,0,2.57-6.14q1.8-9.33-.19-12.7t-11-12.07q-8.94-8.76-11.68-12.47a23.49,23.49,0,0,1-3.88-9.54q-1.14-5.85.48-14.26,2.34-12.13,6.52-17.16a21.29,21.29,0,0,1,11.71-6.85,40.65,40.65,0,0,1,17.31.06q10.71,2.06,17.58,7t8.31,10.63q1.43,5.73-1,18.33Z" class="cls-2"/><path d="M1168.06,464.35l-32.8,102.49-26.65-8.53,32.8-102.49Z" class="cls-2"/><path d="M1268.27,509.5,1220.56,606l-21.92-10.84L1230.81,530l-40.93,60.8-15.55-7.69,22.27-68.18-31.5,63.62-21.93-10.85,47.71-96.45,32.45,16q-2.85,9.41-7.16,22l-8.57,26.29,28-42.19Z" class="cls-2"/><path d="M1290.1,524.44l22.61,16.82q9.16,6.82,13,11.93t4.32,9.68a17.83,17.83,0,0,1-1.54,9.08q-2,4.53-8,12.63l-5.59,7.52q-6.15,8.26-10.68,10.78a14.54,14.54,0,0,1-10.59,1.15q-6.06-1.37-13.42-6.84l-6-4.49-25.87,34.77-22.45-16.71Zm11.46,31.47-16.35,22c.62.51,1.15.94,1.62,1.28q3.09,2.31,5.42,1.68t5.9-5.43l5.28-7.09q3.28-4.43,2.9-6.79T1301.56,555.91Z" class="cls-2"/><path d="M1372.43,592.59l-59.81,61.89,12.24,11.83-15,15.48-32.35-31.27,74.77-77.38Z" class="cls-2"/><path d="M1412.69,637.07l-82,69.64-18.11-21.33,82-69.64Z" class="cls-2"/><path d="M1425,652.51l26.83,39.06-17.75,12.19-11-16-16.82,11.55,9.79,14.24-16.88,11.6-9.78-14.25-37.26,25.59-15.84-23.06Z" class="cls-2"/><path d="M1472.71,729.48l-94.45,51.57-13.41-24.56,94.45-51.57Z" class="cls-2"/><path d="M1481.75,747.28l18,43.06-19.88,8.29-7.19-17.24-18.83,7.86,6.73,16.13-18.89,7.88-6.73-16.13-21.84,9.11,7.9,19-19.87,8.29-18.68-44.77Z" class="cls-2"/><path d="M1507.22,810.9l5.22,20.27q5.05,19.64,5,27t-3.21,12a19.39,19.39,0,0,1-8,6.86q-4.83,2.21-19.63,6l-36.49,9.4q-14,3.6-19.1,3.51a14.59,14.59,0,0,1-8.59-2.7,19.61,19.61,0,0,1-5.82-7.15q-2.31-4.54-4.81-14.27l-8.8-34.18Zm-10.85,31.69-68.55,17.65q1.5,5.85,4.2,6.6t13.13-1.94l40.48-10.42a56.77,56.77,0,0,0,9-2.79,4.46,4.46,0,0,0,2.4-2.81C1497.33,847.64,1497.13,845.55,1496.37,842.59Z" class="cls-2"/><path d="M442.56,971.58H478a2.27,2.27,0,0,0,2.27-2.27V933.72a2.27,2.27,0,0,1,2.28-2.27h22.65a2.27,2.27,0,0,1,2.28,2.27v35.59a2.28,2.28,0,0,0,2.28,2.27h35.69a2.28,2.28,0,0,1,2.28,2.28v22.65a2.28,2.28,0,0,1-2.28,2.28H509.8a2.28,2.28,0,0,0-2.28,2.27v35.36a2.28,2.28,0,0,1-2.28,2.28H482.59a2.28,2.28,0,0,1-2.28-2.28v-35.36a2.27,2.27,0,0,0-2.27-2.27H442.56a2.28,2.28,0,0,1-2.27-2.28V973.86A2.28,2.28,0,0,1,442.56,971.58Z" class="cls-3"/><path d="M1432.41,971.58h35.47a2.28,2.28,0,0,0,2.28-2.27V933.72a2.27,2.27,0,0,1,2.28-2.27h22.65a2.27,2.27,0,0,1,2.28,2.27v35.59a2.27,2.27,0,0,0,2.27,2.27h35.7a2.28,2.28,0,0,1,2.27,2.28v22.65a2.28,2.28,0,0,1-2.27,2.28h-35.7a2.27,2.27,0,0,0-2.27,2.27v35.36a2.28,2.28,0,0,1-2.28,2.28h-22.65a2.28,2.28,0,0,1-2.28-2.28v-35.36a2.28,2.28,0,0,0-2.28-2.27h-35.47a2.28,2.28,0,0,1-2.28-2.28V973.86A2.28,2.28,0,0,1,1432.41,971.58Z" class="cls-3"/><path d="M591.7,1178.49l-100.34,38.87-8.83-22.81,67.72-26.27L479,1185.44l-6.27-16.18,62.48-35.21L469,1159.66l-8.83-22.81L560.51,1098l13.08,33.76q-8.46,5-20.13,11.36l-24.09,13.59,49.18-12.15Z" class="cls-2"/><path d="M595,1181.54l23.52,40.29-18.59,10.86-9.42-16.13-17.62,10.29,8.81,15.09L564,1252.26l-8.82-15.09-20.43,11.93,10.36,17.73-18.6,10.86L502,1235.79Z" class="cls-2"/><path d="M620.17,1225.28l12.91,16.48q12.49,16,15.44,22.73t1.89,12.33a19.33,19.33,0,0,1-4.59,9.5q-3.52,3.95-15.56,13.38l-29.67,23.24q-11.4,8.93-16.09,10.87a14.61,14.61,0,0,1-8.94,1,19.7,19.7,0,0,1-8.2-4.22q-3.95-3.24-10.13-11.15l-21.77-27.78Zm2.76,33.38-55.72,43.65c2.49,3.18,4.66,4.63,6.5,4.37s5.6-2.61,11.25-7l32.91-25.78a57.83,57.83,0,0,0,7.09-6.15,4.43,4.43,0,0,0,1.06-3.54Q625.77,1262.28,622.93,1258.66Z" class="cls-2"/><path d="M701.19,1356.89l-19.9-16.71,5.13-6.11q3.6-4.27,3.82-6.09a3.67,3.67,0,0,0-1.57-3.3,4.2,4.2,0,0,0-4.25-.88q-2.31.73-5,4-3.46,4.13-4.1,7.15t1.82,10.12q7.17,20.52,6.31,29.08t-11,20.68q-7.39,8.79-13,11.24t-13.84.31a41.27,41.27,0,0,1-16.12-8.72q-8.6-7.23-11.94-15.59t-1-15q2.36-6.63,10.13-15.89l4.53-5.39,19.9,16.71-8.42,10q-3.88,4.63-4.16,6.66a4.24,4.24,0,0,0,1.86,3.82,4.57,4.57,0,0,0,4.59,1c1.64-.54,3.38-1.91,5.24-4.12q6.1-7.27,6-11.18t-3.75-15.9q-3.54-12-4.13-16.58a23.52,23.52,0,0,1,1.26-10.23q1.85-5.65,7.36-12.22,7.95-9.46,14-11.81a21.24,21.24,0,0,1,13.56-.28,40.58,40.58,0,0,1,15.1,8.47q8.36,7,12,14.65t2.08,13.33q-1.53,5.7-9.78,15.52Z" class="cls-2"/><path d="M757,1410.45l-23.68-14.89,10-15.83q4.34-6.92,4.66-9.1t-2.27-3.82c-2-1.22-3.63-1.31-5-.25s-3.55,3.9-6.45,8.51l-26.6,42.31q-4.17,6.64-4.66,9.16t2.27,4.26q2.64,1.65,4.74.14t6.81-9l7.19-11.45,23.69,14.89-2.23,3.55q-8.9,14.14-14.61,18.81t-15.35,4.81q-9.63.15-19.65-6.14-10.41-6.54-14.79-14.56a21.66,21.66,0,0,1-2.39-16.06q2-8.05,10.42-21.44l16.73-26.61a140.5,140.5,0,0,1,10-14.35,24.34,24.34,0,0,1,10-6.95,26.5,26.5,0,0,1,13.8-1.34,39.76,39.76,0,0,1,15.29,6q10.46,6.59,14.73,14.91t2.6,15.71q-1.65,7.38-9.67,20.14Z" class="cls-2"/><path d="M843.81,1397.54l-42.44,98.88-25.71-11,17.82-41.53-7.69-3.3L768,1482.08l-25.71-11,42.44-98.88,25.71,11-15.18,35.36,7.7,3.3,15.18-35.36Z" class="cls-2"/><path d="M894.23,1475.79q-4,15.72-6.44,22.06a25.75,25.75,0,0,1-20.35,16.36,39.5,39.5,0,0,1-16.2-1.06,40.52,40.52,0,0,1-14.33-6.59,25.82,25.82,0,0,1-10.39-24.1q.87-6.63,5-22.73l4.56-17.83q4-15.72,6.44-22.06a25.75,25.75,0,0,1,20.35-16.36,39.5,39.5,0,0,1,16.2,1.06,40.6,40.6,0,0,1,14.33,6.58,25.85,25.85,0,0,1,10.39,24.11q-.87,6.63-5,22.73Zm-18.34-41.19c1.25-4.85,1.77-8,1.58-9.51a3.31,3.31,0,0,0-2.79-2.88,3.85,3.85,0,0,0-3.68.81q-1.54,1.35-3.6,9.4l-12.47,48.67c-1.55,6.06-2.26,9.85-2.13,11.4s1.1,2.54,2.9,3a3.44,3.44,0,0,0,4.17-1.54q1.39-2.23,3.75-11.45Z" class="cls-2"/><path d="M970.9,1484.3q-1.59,16.14-3,22.78a25.72,25.72,0,0,1-17.63,19.27,39.72,39.72,0,0,1-16.16,1.41,40.49,40.49,0,0,1-15.17-4.34A25.9,25.9,0,0,1,905,1501.18q-.13-6.69,1.49-23.23l1.81-18.32q1.59-16.14,3-22.78a25.73,25.73,0,0,1,17.63-19.26,39.44,39.44,0,0,1,16.17-1.41,40.44,40.44,0,0,1,15.16,4.33,25.84,25.84,0,0,1,13.94,22.24q.13,6.7-1.49,23.23Zm-24.37-37.93q.74-7.47.11-9.64a3.31,3.31,0,0,0-3.2-2.42,3.82,3.82,0,0,0-3.5,1.36q-1.34,1.57-2.14,9.84l-4.93,50q-.93,9.33-.38,11.59c.37,1.5,1.47,2.35,3.33,2.53a3.44,3.44,0,0,0,3.88-2.16c.7-1.62,1.35-5.58,2-11.89Z" class="cls-2"/><path d="M1009.73,1420.14l2.6,86,17-.51.65,21.52-45,1.36L981.76,1421Z" class="cls-2"/><path d="M1114.3,1437.29l-25.45,5.25-1.62-7.81c-.75-3.65-1.55-5.9-2.41-6.77a3.65,3.65,0,0,0-3.56-.82,4.24,4.24,0,0,0-3.33,2.79q-.86,2.28,0,6.38,1.08,5.28,3.06,7.65t9.07,4.85q20.55,7.08,26.73,13.07t9.38,21.48q2.32,11.25.79,17.14t-8.34,11a41.16,41.16,0,0,1-16.83,7.24q-11,2.26-19.64-.29t-12.37-8.51q-3.73-6-6.18-17.8l-1.43-6.9,25.45-5.25,2.65,12.83c.81,4,1.7,6.41,2.65,7.39s2.33,1.28,4.15.91a4.59,4.59,0,0,0,3.63-3,12.48,12.48,0,0,0,0-6.65c-1.27-6.21-3-10.09-5-11.65s-7.07-3.86-14.8-6.93-12.93-5.45-15.57-7a23.54,23.54,0,0,1-7.24-7.33q-3.3-5-5-13.35-2.49-12.1-.56-18.34a21.25,21.25,0,0,1,8.19-10.82,40.65,40.65,0,0,1,16-6.59q10.66-2.21,18.9-.3t11.75,6.63q3.53,4.74,6.12,17.3Z" class="cls-2"/><path d="M1139.94,1394.31l33.39,102.29-26.6,8.68L1113.35,1403Z" class="cls-2"/><path d="M1222.8,1356.33l47.4,96.61-22,10.77-32-65.2,23.25,69.5-15.57,7.64-40.48-59.2,31.23,63.74-22,10.77-47.39-96.6,32.5-15.94q5.71,8,13.06,19.07l15.62,22.82-16.36-47.94Z" class="cls-2"/><path d="M1225.27,1353.4l22.81-16.55q9.26-6.7,15.28-8.86t10.52-1.23a17.74,17.74,0,0,1,8.21,4.18q3.72,3.27,9.65,11.44l5.5,7.58q6.06,8.34,7.1,13.41a14.55,14.55,0,0,1-2.07,10.45q-3.11,5.39-10.54,10.77l-6.08,4.41,25.44,35.07-22.65,16.43Zm33.46-1.53L1274.8,1374c.68-.43,1.24-.82,1.71-1.16q3.12-2.25,3.22-4.67c.06-1.61-1.07-4-3.41-7.25l-5.19-7.16c-2.16-3-4-4.57-5.62-4.8S1261.67,1349.74,1258.73,1351.87Z" class="cls-2"/><path d="M1296,1296.79l58.72,62.92,12.44-11.61,14.7,15.74-32.9,30.7-73.41-78.66Z" class="cls-2"/><path d="M1329.15,1261.43l80.1,71.84-18.68,20.83-80.11-71.84Z" class="cls-2"/><path d="M1333.21,1256.85l28-38.19,17.35,12.75-11.49,15.64,16.45,12.08,10.23-13.92,16.49,12.12-10.23,13.92,36.43,26.76-16.57,22.55Z" class="cls-2"/><path d="M1376.49,1192.27l92.4,55.14-14.34,24-92.39-55.15Z" class="cls-2"/><path d="M1380.06,1186.48l19.84-42.23,19.49,9.16-7.94,16.9,18.47,8.68,7.43-15.82,18.53,8.71-7.44,15.82,21.42,10.06,8.73-18.59,19.49,9.16-20.63,43.91Z" class="cls-2"/><path d="M1401.79,1140.9l6.25-20q6.06-19.35,10-25.61t9.08-8.55a19.44,19.44,0,0,1,10.43-1.62q5.25.67,19.84,5.24l36,11.24q13.83,4.32,18.08,7.08a14.55,14.55,0,0,1,5.88,6.82,19.82,19.82,0,0,1,1.18,9.14q-.43,5.08-3.43,14.67L1504.49,1173Zm25.93-21.21,67.55,21.12c1.2-3.85,1.18-6.46-.09-7.83s-5.33-3.13-12.18-5.27l-39.9-12.47a56.56,56.56,0,0,0-9.08-2.36,4.48,4.48,0,0,0-3.52,1.13Q1429.09,1115.32,1427.72,1119.69Z" class="cls-2"/><path d="M1295.26,875.22v204.43H1152.59c-.65-12.71-1.13-22.42-1.13-22.42,0-.46-.08-.93-.14-1.39-2.46-16.61-7.76-40.48-25.4-55.61-11.66-10-25.24-16-37-20.82a14.32,14.32,0,0,0-5.48-1.09.55.55,0,0,0-.18,0,14,14,0,0,0-4.67-3.08c-2.94-1.21-6.1-2.52-9.25-4l-32.76-14.78a155.77,155.77,0,0,1-.55-19.08c12.87-13.73,22-32.76,27.19-56.69a14.52,14.52,0,0,0,.3-2.28l.39-6.91c5.84-6.12,8.86-14.4,10.71-19.51l.26-.73c4.33-11.86,6.25-23.08,5.66-33.27-.48-9.22-3.78-14.9-7.33-18.37l4.53-16a11.31,11.31,0,0,0,.45-2.26c7-59.75-49.35-85.07-80.32-90.15a65.33,65.33,0,0,0-9.63-.72c-26.91,0-45,17-53.43,27.41a.85.85,0,0,0-.23,0c-14.86,3.57-26.52,12-33.73,24.49-11,19-9.51,42.8-7.11,57.18-3.65,3.59-7.13,9.59-7.09,19.5,0,10.33,2.56,21.43,7.57,33l.3.72c2,4.7,5.06,11.69,10.17,17.2l.63,6.83.06.63c.18,1.24,4.11,28.74,23.26,52.24a170.79,170.79,0,0,1-1.71,22.12q-15.1,5.79-30.21,11.64l-3.28,1.27c-2.9,1.1-6.07,2.23-10.22,3.66a14.56,14.56,0,0,0-5.88,3.85,15.53,15.53,0,0,0-2.35-.2,15.12,15.12,0,0,0-4.86.82c-11,3.91-23.78,9.05-34.92,17.58-13.86,10.66-23.16,28.36-28.44,54.1a12.74,12.74,0,0,0-.22,1.47l-3.38,33.58H671.91V875.22H881.37V665.76H1085.8V875.22Z" class="cls-4"/><path d="M1073.55,1200.07a14.59,14.59,0,0,1-2.49,1.27,241.79,241.79,0,0,1-172.41,1.54l-8.87-3.53c-2.83-1.19-5.66-2.45-8.41-3.73v93.49H1085.8v-96.88Z" class="cls-4"/><path d="M1199.82,865.07h49.06A290.22,290.22,0,0,0,1096,712.71v49A245.88,245.88,0,0,1,1199.82,865.07Z" class="cls-1"/><path d="M1096,1195.21v49a290.23,290.23,0,0,0,153.79-154.37h-48.85A245.9,245.9,0,0,1,1096,1195.21Z" class="cls-1"/><path d="M766.28,1089.8H717.44a290.17,290.17,0,0,0,153.78,154.37v-49A246,246,0,0,1,766.28,1089.8Z" class="cls-1"/><path d="M871.22,761.67v-49A290.17,290.17,0,0,0,718.3,865.07h49.05A245.88,245.88,0,0,1,871.22,761.67Z" class="cls-1"/><path d="M895.42,1186c-3.67-1.54-7.27-3.16-10.84-4.89l-69.39-51.79-2.33-1.75.09-.79,8-79.23c3.35-16.3,9.41-35,23.08-45.53,9.22-7.06,20-11.52,30.93-15.4-.4,18.41,5.95,42.71,9.9,55.87-9.43,3.69-18,9.88-23.53,17.28-10.71,14.34-5.33,35.48-1.41,50.92.58,2.22,1.11,4.31,1.54,6.3,5.08,21.75,11.65,40,20.14,55.63l.3-.17-.26,1.47S888.17,1181.58,895.42,1186Z" class="cls-1"/><path d="M1060.85,808.65a6.64,6.64,0,0,0-5.47.67l8.37-29.6c7.26-61.8-68.09-74.12-68.09-74.12-34.7-5.23-54,27.43-54,27.43l-3.76-.95c-46.49,11.17-27.59,75.85-27.59,75.85l.21.82a6.71,6.71,0,0,0-4.85,0c-3.72,1.58-4.6,6.39-4.58,10.41,0,9.25,2.64,18.62,6.36,27.23,2.12,4.88,5.59,13.43,11.07,16.5l1.16,12.7s3.76,27.62,23.49,48.88a73.22,73.22,0,0,0,39.18,22.17s20.32,2,39.29-15.36c11-10,21.48-26.5,27.34-53.56l.73-13.52c6.18-2.61,9.51-12.4,11.49-17.82,3.22-8.84,5.31-18.34,4.79-27.55C1065.81,814.76,1064.65,810,1060.85,808.65Z" class="cls-1"/><path d="M1141.07,1139.1,1137,1058c-2.44-16.48-7.41-35.49-20.51-46.73-9.06-7.8-19.94-13-31-17.56,1.77,15.31,1.15,40.15-10.26,75.32l-.09.25-.19.54a19.8,19.8,0,0,1,8.79,16.11,20.32,20.32,0,0,1-19.76,20.89,19.69,19.69,0,0,1-4.57-.41,20.33,20.33,0,0,1,3.4-40.26c.38,0,.74,0,1.09,0,12.73-39,11.56-64.53,9.18-77.48-3.28-1.35-6.5-2.7-9.71-4.15q-19.72-8.88-39.47-17.8c-2.5-6.81-2.64-21.39-2.28-33.11,0-.81,0-1.57.08-2.34-19,17.32-39.29,15.35-39.29,15.35-.65-.14-1.29-.28-1.92-.44a73,73,0,0,1-35.26-19.66c-.69-.67-1.35-1.35-2-2.06-.12,12.29-.9,30.6-4.25,38.31q-20.18,7.74-40.38,15.55c-3.5,1.35-7.07,2.6-10.67,3.85-1.61,13,3.52,37.78,9.28,57l1.77-.3c8.54-1.37,18.68-2.17,28,.28.1,0,.2.07.28.09l.08,0c19.28,5.43,25.82,29.38,29.75,43.72.69,2.54,1.39,5.1,2.06,7.65q2,7.62,3.6,15.33a248,248,0,0,1,4.67,31.62c.83,10.23.89,20.77-2.15,30.7-1.25,4.13-3.59,9.34-8.4,10.13a16.14,16.14,0,0,1-3.32-.3c-3.81-.71-9.65-3.09-10.5-11l12.23-17.26c0-21.77-5-43.37-10.47-63.49-3.43-12.44-8.54-31.17-20.79-34.74a2,2,0,0,0-.32-.1c-8.44-2.25-18.69-.8-26.67.67-9.83,1.83-20.1,8-25.5,15.2-7.07,9.49-2.57,27.21.71,40.14.6,2.32,1.15,4.49,1.63,6.57,4.73,20.3,10.8,37.2,18.55,51.72l2,.48,16.68,4c6.83,9.83-2.94,17.6-2.94,17.6a8,8,0,0,1-5.48,1,226.51,226.51,0,0,0,25.62,8c1.09.28,2.18.56,3.28.8a227.58,227.58,0,0,0,134.16-9.81c24.51-5.27,63.06-38,73-46.64l.56-.36,1.84-1.17Z" class="cls-1"/></svg>